<?xml version="1.0" encoding="UTF-8"?>
<svg width="367px" height="419px" viewBox="0 0 367 419" version="1.1" xmlns="http://www.w3.org/2000/svg" xmlns:xlink="http://www.w3.org/1999/xlink">
    <!-- Generator: Sketch 64 (93537) - https://sketch.com -->
    <title>Group 217</title>
    <desc>Created with Sketch.</desc>
    <defs>
        <polygon id="path-1" points="0.0252177681 0.295 93.3965287 0.295 93.3965287 54.0745 0.0252177681 54.0745"></polygon>
        <polygon id="path-3" points="0.99160483 0.647273441 210.222066 0.647273441 210.222066 210 0.99160483 210"></polygon>
    </defs>
    <g id="Page-1" stroke="none" stroke-width="1" fill="none" fill-rule="evenodd">
        <g id="01" transform="translate(-24.000000, -147.000000)">
            <g id="Group-217" transform="translate(24.000000, 147.000000)">
                <path d="M150,118 C150,175.9896 197.0104,223 255,223 C312.9896,223 360,175.9896 360,118 C360,60.0104 312.9896,13 255,13 C197.0104,13 150,60.0104 150,118" id="Fill-1" fill="#E2D3F5"></path>
                <path d="M264.561277,17.0033716 C267.866818,16.0644258 271.401029,15.6543952 274.77263,16.3458669 C278.14169,17.0373387 281.330356,18.9249352 283.035212,21.7878707 C284.983982,25.0559845 284.798506,29.0543894 284.559674,32.8077465 C283.957511,42.211762 283.355349,51.6157775 282.755728,61.0173668 C282.588037,63.6255496 282.440672,66.3429122 283.500173,68.7545715 C284.562215,71.1638045 287.2224,73.1460235 289.905453,72.6171083 C291.269846,72.3477982 292.420815,71.4913438 293.716607,70.9915432 C295.009859,70.4941688 296.735041,70.474759 297.545547,71.5568516 C298.028293,72.199799 298.048619,73.0586797 297.957151,73.8472001 C297.560791,77.3239684 295.307129,80.5605414 292.103218,82.2564668 C293.988469,81.385455 296.351385,83.2026912 296.381874,85.1970413 C296.414904,87.1962437 294.727833,88.9212837 292.784145,89.6661322 C290.842997,90.4085545 288.685883,90.3818661 286.59483,90.3430467 C288.317472,90.369735 289.646294,92.1287421 289.476063,93.7664383 C289.305831,95.4017082 287.954142,96.7676682 286.366161,97.4081894 C284.780721,98.0487105 282.99456,98.0753989 281.27954,97.9225473 C277.633536,97.5998605 273.995154,96.4813746 271.121544,94.312337 C266.103524,90.5225867 264.070909,84.0542933 264.002308,77.9450799 C263.931166,71.8358665 265.521688,65.8334067 266.416039,59.7848487 C268.486766,45.7491858 266.792073,31.4854584 265.09738,17.4061236 C265.511525,17.287239 265.920589,17.1683544 266.332194,17.0494697" id="Fill-3" fill="#FF7081"></path>
                <path d="M282.976808,228.753807 C278.903402,232.573005 277.355456,238.518197 281.239582,243.104271 C284.898128,247.424595 291.976675,248.340798 296.54532,244.89618 C307.578001,236.587085 296.078602,221.252084 284.174716,224.42589 C281.970773,225.013069 282.520462,228.080576 284.698476,228.202061 C288.178114,228.394413 291.904075,228.523491 294.686229,230.905111 C297.670627,233.463898 297.738042,237.789284 295.287776,240.730243 C288.800404,248.517964 277.529179,237.050248 284.343253,230.087616 C285.204087,229.209378 283.876535,227.911002 282.976808,228.753807" id="Fill-5" fill="#7CABFF"></path>
                <path d="M164.336516,188.031706 C162.953577,186.448881 161.426534,185.234796 160.733902,183.117674 C159.350963,178.898479 161.991331,176.803932 165.091903,175.233649 C168.248257,173.633265 170.795654,171.769495 171.732333,167.919041 C173.196622,161.903804 168.452793,154.486349 162.38878,156.269849 C160.42245,156.849299 161.008166,159.550888 162.351592,160.388706 C164.227275,161.557639 166.742132,162.227392 167.058233,165.016777 C167.481249,168.746826 164.071549,169.812912 161.689176,171.157436 C159.113888,172.61233 157.170801,174.827282 156.350335,177.882561 C154.944153,183.145266 157.85646,190.29181 163.553238,189.990797 C164.357434,189.948153 164.917583,188.696442 164.336516,188.031706" id="Fill-7" fill="#7E2E84"></path>
                <path d="M146.011126,252.067404 C146.551526,255.532237 150.197963,262.863227 154.036318,263.875257 C156.079232,264.41617 157.596897,263.087569 159.185269,262.008236 C162.071611,260.046492 164.920075,258.039879 167.773589,256.03576 C168.81146,255.305403 169.425092,253.899528 168.65237,252.725473 C166.127137,248.891722 163.604428,245.055478 161.079195,241.219234 C160.404957,240.197233 158.849413,239.566583 157.72821,240.354272 C154.579243,242.552821 151.167653,244.579375 148.32929,247.159305 C146.374759,248.93659 148.86464,251.843062 151.08432,250.683963 C154.303993,249.0014 157.225688,246.608421 160.200413,244.532014 C159.081735,244.24037 157.965582,243.951218 156.849428,243.662066 C159.372137,247.49831 161.89737,251.332061 164.420079,255.165812 C164.713006,254.064045 165.005933,252.959785 165.29886,251.858018 C163.586752,253.059493 161.869593,254.258475 160.162535,255.467427 C159.19537,256.152916 155.958021,259.146632 154.882271,259.026983 C153.917632,258.919798 151.897445,255.532237 151.304015,254.834285 C150.091903,253.413454 148.955548,252.069896 147.392428,251.017983 C146.639909,250.509475 145.900015,251.347017 146.011126,252.067404" id="Fill-9" fill="#FBC580"></path>
                <path d="M314.011607,96.0660701 C314.551995,99.5308599 318.198357,106.86425 322.036631,107.876267 C324.079503,108.414681 325.597136,107.086096 327.185475,106.006776 C330.069231,104.04755 332.92016,102.03847 335.773615,100.034376 C336.811464,99.3040283 337.425083,97.9006638 336.652378,96.7241309 C334.127197,92.8904282 331.604541,89.0542329 329.07936,85.2205302 C328.405137,84.1960492 326.849626,83.5679002 325.728446,84.3530864 C322.579545,86.5516077 319.168026,88.5781359 316.329723,91.160526 C314.375233,92.9377887 316.862536,95.8442238 319.084695,94.6826468 C322.3043,93.000105 325.225935,90.6071567 328.200598,88.5307754 C327.081942,88.2391348 325.965813,87.9524796 324.849683,87.660839 C327.372338,91.4970343 329.897519,95.330737 332.420175,99.1669323 C332.713096,98.0626864 333.006017,96.9584404 333.298938,95.8566871 C331.586865,97.0606393 329.869742,98.2571134 328.16272,99.4660509 C327.195576,100.151531 323.958294,103.145209 322.882567,103.025562 C321.917948,102.918377 319.895278,99.5308599 319.304386,98.8354093 C318.092299,97.4121035 316.958493,96.0685627 315.392881,95.0191552 C314.637852,94.508161 313.897974,95.3456929 314.011607,96.0660701" id="Fill-11" fill="#FBC580"></path>
                <path d="M328.888244,157.116692 C322.615778,160.155437 316.447089,163.365238 310.29288,166.655535 C308.811043,167.447923 308.576942,169.080494 309.725728,170.318128 C314.236401,175.180624 318.686738,180.058213 323.532876,184.558474 C324.466868,185.426327 325.972839,184.928255 326.460349,183.816396 C329.469877,176.971672 334.038472,167.639102 332.788323,159.871184 C332.469752,157.896503 329.576068,156.998463 328.801361,159.199541 C327.589827,162.6458 327.597067,166.509635 326.819947,170.096763 C325.922157,174.234789 324.754064,178.382878 322.985031,182.214011 L326.262449,181.856808 C321.843485,176.644655 317.06251,171.845048 312.286361,166.992614 C312.259814,168.122082 312.230853,169.254065 312.201892,170.383532 C318.23543,166.854261 324.213459,163.269648 330.109432,159.496372 C331.352341,158.701468 330.22769,156.467689 328.888244,157.116692" id="Fill-13" fill="#FF7081"></path>
                <path d="M210.195867,246.572705 C214.687598,241.202507 219.231753,235.219964 222.741737,229.047823 C223.849776,227.100614 221.118995,224.874134 219.722626,226.647119 C215.366719,232.176168 211.504069,238.678822 208.163269,244.958571 C207.455554,246.290872 209.218886,247.738468 210.195867,246.572705" id="Fill-15" fill="#FF7081"></path>
                <path d="M365.882019,62.401019 L365.539024,62.0992184 C364.031276,60.7684442 361.558854,60.5046658 360.091598,62.0992184 C358.610051,63.7104058 358.662453,65.9228179 360.091598,67.5340053 C360.19402,67.6480716 360.29406,67.7597616 360.396483,67.8762043 C361.744643,69.3970892 364.524331,69.3519379 365.882019,67.8762043 C367.232561,66.4075999 367.506481,63.8339777 365.882019,62.401019" id="Fill-17" fill="#241352"></path>
                <path d="M183.882019,212.401981 C183.767687,212.302165 183.653356,212.199973 183.539024,212.100156 C182.031276,210.766899 179.558854,210.505476 178.091598,212.100156 C176.610051,213.711473 176.662453,215.921686 178.091598,217.53538 C178.19402,217.649455 178.29406,217.761154 178.394101,217.87523 C179.744643,219.396236 182.524331,219.353458 183.882019,217.87523 C185.232561,216.408884 185.506481,213.835055 183.882019,212.401981" id="Fill-19" fill="#241352"></path>
                <path d="M239,85.7453773 L168.47857,112.360099 L175.209276,83.690361 L156.868913,79 C156.868913,79 137.140981,135.045669 150.841973,136.542967 C174.827445,139.170775 211.12135,129.609171 211.12135,129.609171 L239,85.7453773 Z" id="Fill-21" fill="#FFAFA7"></path>
                <path d="M214,146.939127 L214.154644,201.604618 C231.936292,223.733514 293.839816,195.117845 293.839816,195.117845 L294.562294,172.761472 L296,119.507319 C294.574375,98.3005627 275.115806,87.8904178 275.115806,87.8904178 C267.074316,83.8349619 254.806695,81.5283908 243.754479,82.0811852 C232.216584,82.6584394 229.365335,88.2524247 224.612447,98.9096149 C220.772926,107.521955 214,115.598623 214,146.939127" id="Fill-23" fill="#241352"></path>
                <path d="M271.701021,31.3070066 L270.870853,42.2577468 C270.870853,42.2577468 280.176573,43.5147908 277.524443,52.0078016 C274.872313,60.5008125 268.505241,56.7835888 268.505241,56.7835888 C268.505241,56.7835888 266.913473,78.5502983 244.633621,71.6475829 C226.898878,66.1562854 227.983729,43.179089 230.234244,23.5907657 C231.108492,16.0019444 238.281243,10.7850892 245.774796,12.2455146 L259.170135,14.8576178 C266.911024,16.3646004 272.298547,23.4363918 271.701021,31.3070066" id="Fill-25" fill="#FFAFA7"></path>
                <path d="M272,51 L265.896513,83.3954245 C264.521922,90.6957321 257.287883,95.3643605 250.028942,93.6421223 C243.302905,92.0437862 238.994855,85.5042371 240.202603,78.7292741 L243.517063,60.161316 L272,51 Z" id="Fill-27" fill="#FFAFA7"></path>
                <path d="M245.979035,52.0800527 C246.009749,52.0724839 246.069559,52.5594084 245.620173,52.9151408 C245.151389,53.2532127 244.399719,52.5467938 244.205739,51.4064318 C243.956799,50.3140053 243.989129,48.9970386 244.023075,47.6598884 C244.069954,46.2041608 244.116832,44.7660937 244.166943,43.2573847 C244.4175,37.0156688 244.808692,31.974865 245.039851,32 C245.272627,32.0202777 245.256462,37.0989253 245.005905,43.3406412 C244.934779,44.8443044 244.866886,46.2823715 244.797377,47.7355762 C244.716552,49.0878639 244.642193,50.2559781 244.776362,51.1440476 C244.873352,52.0396859 245.272627,52.4635372 245.534499,52.4206475 C245.802837,52.3727119 245.922458,52.0169796 245.979035,52.0800527" id="Fill-29" fill="#241352"></path>
                <path d="M240.007599,69.0239434 C240.190328,68.7027075 244.555507,71.7182526 250.938314,71.8200527 C257.321121,71.9603106 261.825885,69.1099079 261.993386,69.4379304 C262.089826,69.5510416 261.130502,70.4174736 259.189012,71.3178389 C257.267825,72.2182042 254.288336,73.0620139 250.910397,72.9964094 C247.532459,72.9353294 244.598652,71.9806707 242.720609,71.0079142 C240.822263,70.0351577 239.906083,69.1347923 240.007599,69.0239434" id="Fill-31" fill="#241352"></path>
                <path d="M244.026699,56.736861 C244.169362,56.6194814 244.663927,57.0429686 245.567459,57.4089168 C246.451969,57.7794681 247.828666,58.0464492 249.176831,57.6321682 C250.524996,57.2063794 251.480838,56.2144067 251.975403,55.4134635 C252.491367,54.6079172 252.638785,53.9841942 252.826625,54.0003052 C252.974043,54.0003052 253.15475,54.7045828 252.767182,55.7771102 C252.403392,56.8197172 251.335797,58.2075584 249.557266,58.7737424 C247.769224,59.3169107 246.064401,58.7921549 245.141848,58.1477178 C244.183628,57.4963761 243.905435,56.8220188 244.026699,56.736861" id="Fill-33" fill="#241352"></path>
                <path d="M272.025942,51.7821978 C272.016214,51.6204314 272.384272,51.5237917 272.771788,51.1918553 C272.964734,51.0195845 273.120389,50.7905905 273.173895,50.4817636 C273.22578,50.1603316 273.154439,49.9187324 272.997163,49.8557065 C272.852858,49.7842771 272.732874,49.8494039 272.71666,49.8809168 L272,49.3977184 C272.564248,47.9145091 273.08634,46.9060949 273.261451,47.0069363 C273.436563,47.1056769 273.207945,48.2863619 272.73936,49.8220927 L272.024321,49.3388942 C272.295095,48.7422491 272.880422,48.6119956 273.297122,48.8325862 C273.605188,48.9628397 273.880827,49.3704071 273.950547,49.7443607 C274.038103,50.1288187 273.999189,50.4964697 273.913255,50.7968931 C273.738143,51.4145468 273.332793,51.7695926 273.027969,51.8914427 C272.385894,52.1351428 272.025942,51.9103504 272.025942,51.7821978" id="Fill-35" fill="#241352"></path>
                <path d="M257.008943,31.7842404 C256.892546,31.5242404 257.927183,30.9762404 259.250656,31.3022404 C260.576284,31.6222404 261.188444,32.5702404 260.949184,32.7442404 C260.716391,32.9462404 259.953346,32.5342404 258.966131,32.3102404 C257.987537,32.0562404 257.103784,32.0662404 257.008943,31.7842404" id="Fill-37" fill="#241352"></path>
                <path d="M237.014179,28.1740299 C236.859145,27.9240299 237.992089,27.2580299 239.597293,27.3780299 C241.202497,27.4920299 242.178022,28.3140299 241.972899,28.5380299 C241.782088,28.7860299 240.749319,28.4960299 239.487576,28.4160299 C238.228219,28.3100299 237.152518,28.4460299 237.014179,28.1740299" id="Fill-39" fill="#241352"></path>
                <path d="M270.275369,42.4098499 C264.188249,36.2959939 262.400457,26.1103493 260.749266,17.5198384 C255.112689,21.7496588 247.359999,22.7892119 240.860681,20.1890946 C238.821256,22.6583418 236.424752,24.8164638 233.776615,26.56716 C233.024113,27.065948 232.130217,27.5474512 231.272269,27.2807725 C230.251358,26.9647088 229.796023,25.757247 229.553976,24.6880629 C228.777508,21.2607479 228.74875,17.5939158 229.908658,14.2851246 C231.068566,10.9763334 233.498621,8.06756021 236.683575,6.79836716 C240.08661,5.44028121 243.91862,6.03043129 247.453463,6.97368371 C252.776098,8.39597008 257.907013,10.5812538 262.649694,13.4455806 C267.308497,16.2580531 271.78277,19.9767393 273.757489,25.1522814 C275.734605,30.3253542 275.725019,40.3850672 270.960769,43" id="Fill-41" fill="#FF7081"></path>
                <path d="M235.444037,86.2248676 C241.640241,83.8689542 194,100.80163 194,100.80163 L198.831024,132 L216.951141,126.309155 L235.444037,86.2248676 Z" id="Fill-43" fill="#241352"></path>
                <path d="M172.767898,85 C172.767898,85 184.905505,67.9092755 182.741588,67.9191831 C180.577671,67.9266139 179.448992,71.1441286 175.246567,73.3461074 C175.246567,73.3461074 181.954709,51.975271 179.879316,52.4235929 C177.801464,52.8719148 172.851504,66.5890789 172.526916,66.5742174 C172.202329,66.5593559 176.798193,51.1900885 175.074437,51.0018428 C173.353139,50.8135971 169.131042,65.1103597 169.131042,65.1103597 C169.131042,65.1103597 172.022822,51.5195184 170.198246,51.2148576 C168.373671,50.9101969 165.68107,63.4310103 165.68107,63.4310103 C165.68107,63.4310103 167.832692,52.9164993 166.172869,52.6589 C165.162221,52.5053312 156,78.584786 156,78.584786 C156.240982,78.584786 172.767898,85 172.767898,85" id="Fill-45" fill="#FFAFA7"></path>
                <path d="M267.528859,145 C267.436339,145.009593 267.248727,144.141445 266.984015,142.562334 C266.719303,140.983224 266.38006,138.695569 265.989416,135.86381 C265.2107,130.197875 264.216102,122.377287 263.218933,113.703062 C262.990201,111.521809 262.86684,109.326048 263.226643,107.205251 C263.555606,105.084455 264.496234,103.089407 265.814655,101.551407 C268.466917,98.434296 272.121488,96.9446603 275.136123,96.3836287 C278.194448,95.8153423 280.71564,95.9942921 282.406714,96.1877513 C284.105498,96.3981381 285.012715,96.659308 285,96.7342734 C284.984445,96.831003 284.046387,96.7342734 282.363023,96.6786539 C280.689939,96.6351256 278.227859,96.6012702 275.341725,97.254195 C272.496711,97.8926103 269.145403,99.3895006 266.786123,102.264788 C265.616763,103.689131 264.812347,105.442355 264.521934,107.393874 C264.208392,109.340557 264.324043,111.432334 264.552774,113.577313 C265.547373,122.224938 266.39291,130.081799 266.930044,135.767081 C267.199897,138.608512 267.395218,140.915513 267.500589,142.509133 C267.60596,144.105171 267.62138,144.990247 267.528859,145" id="Fill-47" fill="#241352"></path>
                <path d="M265,142.095315 C265.036343,141.759391 273.351087,142.339624 283.566412,143.392028 C293.784152,144.444433 302.036106,145.569661 302,145.905585 C301.963657,146.23916 293.653743,145.661276 283.433588,144.606522 C273.218263,143.556467 264.963894,142.431239 265,142.095315" id="Fill-49" fill="#241352"></path>
                <g id="Group-53" transform="translate(117.000000, 0.000000)">
                    <mask id="mask-2" fill="white">
                        <use xlink:href="#path-1"></use>
                    </mask>
                    <g id="Clip-52"></g>
                    <polygon id="Fill-51" fill="#7E2E84" mask="url(#mask-2)" points="93.3965287 3.0245 93.3965287 40.037 68.9612524 40.037 68.1831376 54.0745 53.823831 39.2245 0.0252177681 39.2245 4.76307259 0.2945"></polygon>
                </g>
                <path d="M203.801128,13.8313851 C180.031973,13.4373851 156.10641,13.3013851 132.337255,13.7133851 C131.887582,13.7213851 131.887582,14.2793851 132.337255,14.2873851 C156.10641,14.6993851 180.031973,14.5613851 203.801128,14.1673851 C204.065067,14.1653851 204.067511,13.8353851 203.801128,13.8313851" id="Fill-54" fill="#E6E2EB"></path>
                <path d="M203.801128,21.831 C180.031973,21.439 156.10641,21.301 132.337255,21.713 C131.887582,21.721 131.887582,22.279 132.337255,22.287 C156.10641,22.699 180.031973,22.561 203.801128,22.169 C204.065067,22.165 204.067511,21.835 203.801128,21.831" id="Fill-56" fill="#E6E2EB"></path>
                <path d="M200.803175,29.831422 C186.39239,29.457422 171.746988,29.343422 157.333785,29.713422 C156.888738,29.725422 156.888738,30.275422 157.333785,30.287422 C171.746988,30.655422 186.39239,30.543422 200.803175,30.169422 C201.064398,30.163422 201.066816,29.837422 200.803175,29.831422" id="Fill-58" fill="#E6E2EB"></path>
                <path d="M237.728535,37.814948 C237.466535,37.942948 237.070535,37.670948 236.696535,37.324948 C236.328535,36.970948 236.032535,36.594948 236.144535,36.324948 C236.246535,36.060948 236.886535,36.070948 237.410535,36.564948 C237.934535,37.058948 237.986535,37.696948 237.728535,37.814948" id="Fill-60" fill="#241352"></path>
                <path d="M256.831273,38.9847412 C256.565273,39.0820437 256.103273,38.7010797 255.653273,38.2096198 C255.207273,37.7132122 254.891273,37.2431917 255.079273,37.0601312 C255.259273,36.8787198 255.959273,37.1129054 256.487273,37.6934219 C257.015273,38.2739383 257.091273,38.8923863 256.831273,38.9847412" id="Fill-62" fill="#241352"></path>
                <path d="M252.816075,55.7777814 C253.278084,57.6703237 252.839823,59.5270538 251.835924,59.9237439 C250.834183,60.3231888 249.644616,59.1138349 249.182607,57.2212926 C248.722756,55.331505 249.161018,53.474775 250.164917,53.0753301 C251.166657,52.67864 252.356224,53.8879939 252.816075,55.7777814" id="Fill-64" fill-opacity="0.2" fill="#241352"></path>
                <path d="M264,44.45968 C264.011968,46.3923535 261.78416,47.9782747 259.022831,47.9997787 C256.261502,48.0212827 254.014468,46.4729935 254,44.54032 C253.988032,42.6076465 256.21584,41.0217253 258.979572,41.0002213 C261.738498,40.9787173 263.987935,42.5270065 264,44.45968" id="Fill-66" fill-opacity="0.15" fill="#241352"></path>
                <path d="M242,45.45968 C242.011968,47.3923535 239.78416,48.9782747 237.022831,48.9997787 C234.261502,49.0212827 232.014468,47.4729935 232,45.54032 C231.988032,43.6076465 234.21584,42.0217253 236.979572,42.0002213 C239.738498,41.9787173 241.987935,43.5270065 242,45.45968" id="Fill-68" fill-opacity="0.15" fill="#241352"></path>
                <path d="M272.254812,27.9803867 C272.149893,27.8398326 272.538968,27.280082 272.184866,26.2518178 C271.889781,25.2580755 270.993596,23.8328075 270.28102,22.202873 C268.772807,18.9553333 267.771704,16.1837049 268.044931,16.0086287 C268.318158,15.8335525 269.773911,18.3437996 271.295239,21.615998 C272.012186,23.2804545 272.783779,24.6712005 272.969574,26.052083 C273.059192,26.7178656 272.943344,27.334331 272.720391,27.6573589 C272.501809,27.9828526 272.300714,28.0371016 272.254812,27.9803867" id="Fill-70" fill="#6F35A5"></path>
                <polygon id="Fill-72" fill="#7CABFF" points="219.184229 133.786 215 188.37996 273 196 269.075413 133"></polygon>
                <polyline id="Fill-74" fill="#7CABFF" points="222 96.3996031 222 139 229 136.551923 229 88 222 89.9878579"></polyline>
                <path d="M275.711471,90 C275.711471,90 249.741721,93.3109217 257.419497,135.311348 L263.926171,136 C263.926171,136 256.587594,96.5409696 281,93.7250932 L275.711471,90 Z" id="Fill-76" fill="#7CABFF"></path>
                <path d="M268.651809,138 C268.651809,138 277.469289,190.133106 265.034697,188.850902 C224.133505,184.631238 199.778939,184.060546 199.778939,184.060546 L193,198.184561 C192.842653,200.590856 270.456671,222.882441 282.928199,215.512853 C291.733367,210.307448 305.761065,196.289665 299.393569,154.399373 L297.889106,140.359355 L268.651809,138 Z" id="Fill-78" fill="#FFAFA7"></path>
                <path d="M290.45492,103.899822 C290.45492,103.899822 299.891154,113.116782 302,148 L265.482382,143.889533 C265.482382,143.889533 259.396924,84.4822658 290.45492,103.899822" id="Fill-80" fill="#241352"></path>
                <path d="M204.354915,184.631645 C204.354915,184.631645 184.227071,178.35075 184.915498,180.417287 C185.606402,182.481362 189.033683,182.560181 192.458487,185.890287 C192.458487,185.890287 169.953338,186.13167 171.037983,187.976529 C172.120152,189.821388 186.765338,190.28445 186.854487,190.597263 C186.943636,190.912539 170.832446,191.304172 171.19647,193.008634 C171.558019,194.71556 186.527608,194.299296 186.527608,194.299296 C186.527608,194.299296 172.652569,195.767301 172.934874,197.604771 C173.222132,199.444704 186.015002,198.119558 186.015002,198.119558 C186.015002,198.119558 175.307226,199.336328 175.584578,201.00138 C175.755447,202.016176 206.935281,202.247707 207,202.994025 C207.034335,203.383194 204.354915,184.631645 204.354915,184.631645" id="Fill-82" fill="#FFAFA7"></path>
                <path d="M229.293955,132.000194 C229.448301,131.984441 229.834165,132.92961 229.983532,134.659795 C230.03581,135.510447 229.991,136.639399 229.438343,137.755223 C228.930495,138.821164 227.805265,140 226.24687,140 C224.720838,139.981622 223.593118,138.978692 222.950841,137.983639 C222.283668,136.9282 222.106918,135.859634 222.027255,135.003731 C221.922698,133.278798 222.14177,132.275868 222.298605,132.265366 C222.497761,132.252239 222.609786,133.305052 222.930925,134.848828 C223.107676,135.604964 223.376536,136.513376 223.919236,137.248508 C224.459446,137.986265 225.335732,138.640007 226.244381,138.63213 C227.15054,138.647883 227.942184,137.946883 228.395264,137.140863 C228.86328,136.340095 229.005179,135.434308 229.067415,134.654544 C229.157035,133.081887 229.094799,132.021198 229.293955,132.000194" id="Fill-84" fill="#241352"></path>
                <path d="M226.52813,134.382028 C226.594764,134.483763 226.516753,134.677228 226.60614,134.90238 C226.724781,135.160889 226.838547,135.222597 227.054701,135.089174 C227.257853,134.935736 227.244852,134.802313 227.057951,134.590502 C226.890554,134.420387 226.685776,134.420387 226.620767,134.318651 C226.536256,134.2436 226.776788,133.900034 227.298484,134.028455 C227.532515,134.095166 227.831556,134.276956 227.959948,134.678896 C228.094841,135.094177 227.873812,135.587845 227.524389,135.81133 C227.189594,136.054828 226.661398,136.078178 226.339604,135.789649 C226.024312,135.514462 225.97718,135.160889 226.00806,134.912387 C226.090946,134.370353 226.49075,134.275289 226.52813,134.382028" id="Fill-86" fill="#241352"></path>
                <path d="M263.474767,133.005755 C263.614249,132.937947 264.145858,133.471658 263.961637,134.484395 C263.81426,135.420576 262.735251,136.870781 260.648289,136.999834 C258.553432,137.017333 257.33231,135.648059 257.090191,134.725003 C256.803332,133.729764 257.279675,133.161056 257.42442,133.217927 C257.629695,133.257299 257.574429,133.791009 258.000769,134.449398 C258.377107,135.090288 259.395586,135.897416 260.590391,135.862418 C261.785197,135.814297 262.716829,134.939362 263.027373,134.272224 C263.382657,133.587587 263.274756,133.058251 263.474767,133.005755" id="Fill-88" fill="#241352"></path>
                <path d="M261.136218,129.73087 C261.065819,129.58762 261.282044,129.014617 261.848586,129 C262.116772,129.002923 262.482174,129.160791 262.760417,129.745487 C263.060449,130.312643 263.08224,131.403101 262.805673,132.066731 C262.574363,132.774213 261.984355,133.262434 261.498269,132.8473 C261.003802,132.379543 260.970278,131.581433 261.013859,131.101982 C261.059115,130.584526 261.256902,130.20155 261.42787,130.110922 C261.600514,130.023218 261.687675,130.137234 261.696055,130.227862 C261.694379,130.447123 261.543525,130.681001 261.629009,131.142911 C261.749693,131.680831 261.84691,131.698372 262.069839,131.245233 C262.267626,130.745318 262.079896,130.31849 261.758073,130.064147 C261.459717,129.839039 261.199912,129.917973 261.136218,129.73087" id="Fill-90" fill="#241352"></path>
                <path d="M258.780209,156.99609 C258.494209,156.920842 258.448209,155.802152 258.482209,154.4828 C258.522209,153.163447 258.622209,152.057298 258.910209,152.002116 C259.190209,151.944426 259.566209,153.07315 259.524209,154.527949 C259.486209,155.982748 259.056209,157.073847 258.780209,156.99609" id="Fill-92" fill="#241352"></path>
                <path d="M254.039668,165.943615 C253.876074,165.69108 254.240152,164.758642 254.734142,163.716935 C255.232944,162.677656 255.706084,161.861773 255.914586,162.019608 C256.119881,162.167729 255.956287,163.318707 255.410973,164.457543 C254.87047,165.596379 254.196847,166.193722 254.039668,165.943615" id="Fill-94" fill="#241352"></path>
                <path d="M246.002025,170.550065 C245.946855,170.260065 247.026603,169.912065 248.340165,169.582065 C249.658982,169.260065 250.793899,169.056065 250.977798,169.312065 C251.15907,169.560065 250.213305,170.216065 248.763132,170.574065 C247.315587,170.932065 246.05194,170.830065 246.002025,170.550065" id="Fill-96" fill="#241352"></path>
                <path d="M235.017945,169.382383 C235.181551,169.120383 236.316406,169.284383 237.638239,169.566383 C238.960072,169.854383 240.040391,170.174383 239.99884,170.466383 C239.96508,170.748383 238.718558,170.882383 237.272073,170.568383 C235.825587,170.258383 234.854339,169.636383 235.017945,169.382383" id="Fill-98" fill="#241352"></path>
                <path d="M228.074359,163.023203 C228.271444,162.851075 228.742601,163.65933 229.244552,164.694595 C229.743423,165.734849 230.116037,166.662845 229.966684,166.934758 C229.823489,167.201682 229.161406,166.635404 228.613263,165.495366 C228.063581,164.360316 227.881893,163.187848 228.074359,163.023203" id="Fill-100" fill="#241352"></path>
                <path d="M226.988215,153.001022 C227.278215,153.0387 227.422215,154.141425 227.506215,155.460172 C227.584215,156.783944 227.572215,157.906763 227.288215,157.99468 C227.014215,158.085108 226.554215,157.012527 226.468215,155.56316 C226.376215,154.111282 226.706215,152.960831 226.988215,153.001022" id="Fill-102" fill="#241352"></path>
                <path d="M233.999895,152.072 C233.987389,152.36 232.856863,152.56 231.478721,152.52 C230.095577,152.48 228.990063,152.214 229.000067,151.928 C229.015074,151.64 230.1431,151.44 231.523742,151.48 C232.904385,151.52 234.012401,151.784 233.999895,152.072" id="Fill-104" fill="#241352"></path>
                <path d="M243.999895,152.072 C243.987389,152.36 242.856872,152.56 241.476239,152.52 C240.095607,152.482 238.987599,152.216 239.000105,151.928 C239.012611,151.64 240.143128,151.44 241.523761,151.48 C242.904393,151.52 244.012401,151.784 243.999895,152.072" id="Fill-106" fill="#241352"></path>
                <path d="M254.999895,152.072 C254.987389,152.36 253.856872,152.56 252.476239,152.52 C251.095607,152.48 249.987599,152.214 250.000105,151.928 C250.012611,151.64 251.143128,151.44 252.523761,151.48 C253.904393,151.52 255.012401,151.784 254.999895,152.072" id="Fill-108" fill="#241352"></path>
                <path d="M259.293852,263.057016 C260.639562,256.240505 261.729675,248.904782 261.99838,241.92509 C262.081394,239.749345 258.948686,239.205409 258.588228,241.403406 C257.454424,248.311397 257.045905,255.691624 257,262.703457 C256.99129,264.16714 259.001117,264.535533 259.293852,263.057016" id="Fill-110" fill="#FF957E"></path>
                <path d="M293.882947,285.400253 C293.768615,285.300433 293.654282,285.200613 293.53995,285.098417 C292.032196,283.767488 289.557383,283.506056 288.092504,285.098417 C286.608569,286.709791 286.663353,288.922461 288.092504,290.533835 L288.395007,290.876074 C289.745555,292.397135 292.525253,292.351979 293.882947,290.876074 C295.233494,289.409676 295.505033,286.835754 293.882947,285.400253" id="Fill-112" fill="#241352"></path>
                <g id="Group-116" transform="translate(4.000000, 209.000000)">
                    <mask id="mask-4" fill="white">
                        <use xlink:href="#path-3"></use>
                    </mask>
                    <g id="Clip-115"></g>
                    <path d="M210.222066,105.323268 C210.222066,163.133926 163.383934,210.00172 105.606835,210.00172 C47.8272807,210.00172 0.99160483,163.133926 0.99160483,105.323268 C0.99160483,47.5126104 47.8272807,0.647273441 105.606835,0.647273441 C163.383934,0.647273441 210.222066,47.5126104 210.222066,105.323268" id="Fill-114" fill="#E2D3F5" mask="url(#mask-4)"></path>
                </g>
                <path d="M125,278.747597 L195.523926,305.361166 L188.790724,276.69267 L207.131087,272 C207.131087,272 226.859019,328.043242 213.158027,329.542987 C189.172555,332.170681 152.881146,322.609491 152.881146,322.609491 L125,278.747597 Z" id="Fill-117" fill="#FFAFA7"></path>
                <path d="M149,341.938838 L148.845356,396.60458 C131.063708,418.733577 69.1601839,390.117777 69.1601839,390.117777 L68.4377063,367.761301 L67,314.506904 C68.4256247,293.30005 87.8841938,282.889858 87.8841938,282.889858 C95.9256836,278.834383 108.193305,276.530248 119.247937,277.080599 C130.783416,277.660301 133.634665,283.251866 138.387553,293.909105 C142.229491,302.521485 149,310.59819 149,341.938838" id="Fill-119" fill="#6F35A5"></path>
                <path d="M94.3481912,331 C94.3481912,331 85.5307108,383.133615 97.9653034,381.851398 C138.866495,377.631693 163.221061,377.063465 163.221061,377.063465 L170,391.185148 C170.157347,393.591467 92.5433285,415.880798 80.0718015,408.513608 C71.2666325,403.308153 57.2389346,389.292704 63.606431,347.402003 L65.1108936,333.359378 L94.3481912,331 Z" id="Fill-121" fill="#FFAFA7"></path>
                <path d="M71.5450805,297.900531 C71.5450805,297.900531 62.1088462,307.11982 60,342 L96.5176179,337.889599 C96.5176179,337.889599 102.603076,278.480809 71.5450805,297.900531" id="Fill-123" fill="#6F35A5"></path>
                <path d="M89.2975396,225.307244 L90.1277345,236.258119 C90.1277345,236.258119 80.821715,237.512728 83.4763795,246.008293 C86.128595,254.501408 92.4934226,250.784139 92.4934226,250.784139 C92.4934226,250.784139 94.0852417,272.548666 116.368261,265.648316 C134.101126,260.1545 133.01624,237.179472 130.765652,217.590908 C129.891376,210.001994 122.718394,204.785074 115.2246,206.245518 L101.82883,208.855202 C94.0876907,210.364654 88.6999952,217.436532 89.2975396,225.307244" id="Fill-125" fill="#FFAFA7"></path>
                <path d="M91,244 L97.1059768,276.395425 C98.4805686,283.695732 105.712117,288.364361 112.971058,286.642122 C119.697095,285.043786 124.005145,278.506715 122.797397,271.729274 L119.482937,253.161316 L91,244 Z" id="Fill-127" fill="#FFAFA7"></path>
                <path d="M116.020965,245.080052 C116.077542,245.019502 116.197163,245.372711 116.465501,245.42317 C116.727373,245.463537 117.126648,245.039685 117.223638,244.144046 C117.357807,243.255976 117.283448,242.087861 117.202623,240.735572 C117.133114,239.282366 117.065221,237.84682 116.994095,236.340633 C116.743538,230.098912 116.727373,225.022783 116.960149,225 C117.192924,224.97737 117.5825,230.015655 117.834673,236.257376 C117.883168,237.766087 117.930046,239.206678 117.976925,240.659884 C118.010871,241.994512 118.043201,243.314003 117.794261,244.40643 C117.600281,245.546793 116.848611,246.253213 116.379827,245.915141 C115.930441,245.559408 115.990251,245.072483 116.020965,245.080052" id="Fill-129" fill="#241352"></path>
                <path d="M123.992055,264.023932 C124.096107,264.134724 123.177403,265.034634 121.279087,266.006898 C119.401075,266.979162 116.467314,267.933337 113.089428,267.996647 C109.711543,268.059958 106.732101,267.216575 104.810944,266.316666 C102.869485,265.416756 101.910175,264.550763 102.006614,264.437709 C102.17665,264.109853 106.678806,266.958812 113.061512,266.816364 C119.444218,266.716877 123.809329,263.702858 123.992055,264.023932" id="Fill-131" fill="#241352"></path>
                <path d="M117.973305,248.736861 C118.094552,248.822019 117.816396,249.496376 116.858303,250.147718 C115.933494,250.792155 114.231275,251.316911 112.443469,250.773742 C110.662795,250.20986 109.595342,248.819717 109.2316,247.77711 C108.846461,246.704583 109.024766,246.000305 109.174542,246.000305 C109.362357,245.984194 109.509756,246.607917 110.023275,247.415765 C110.520151,248.214407 111.475867,249.206379 112.821476,249.632168 C114.17184,250.046449 115.545978,249.779468 116.432749,249.408917 C117.333784,249.042969 117.83066,248.619481 117.973305,248.736861" id="Fill-133" fill="#241352"></path>
                <path d="M88.9740563,246.782289 C88.9756778,246.910388 88.614087,247.135086 87.9736011,246.891488 C87.6687623,246.767589 87.26177,246.412691 87.0882713,245.795295 C87.0007112,245.497097 86.9617956,245.1296 87.0493557,244.743202 C87.1190795,244.369405 87.3963531,243.962008 87.7028134,243.833908 C88.1211561,243.61131 88.7065115,243.743609 88.9756778,244.340005 L88.2606036,244.820902 C87.791995,243.285812 87.5633659,242.10562 87.7384861,242.006921 C87.9136062,241.906121 88.4357238,242.916215 89,244.396705 L88.2833044,244.881801 C88.2670896,244.848202 88.1487213,244.783102 88.0027878,244.854502 C87.8455039,244.917501 87.7741587,245.1611 87.8276676,245.482397 C87.8795551,245.788995 88.0352175,246.017894 88.228174,246.192193 C88.6157085,246.52399 88.9837852,246.62059 88.9740563,246.782289" id="Fill-135" fill="#241352"></path>
                <path d="M106.991058,224.783755 C106.896216,225.065755 106.012465,225.057755 105.033873,225.309755 C104.046658,225.535755 103.281459,225.945755 103.050822,225.743755 C102.811562,225.569755 103.423722,224.621755 104.747192,224.301755 C106.072819,223.977755 107.107454,224.523755 106.991058,224.783755" id="Fill-137" fill="#241352"></path>
                <path d="M125.985795,221.17403 C125.847455,221.44603 124.771749,221.31203 123.512384,221.41603 C122.250635,221.49603 121.217861,221.78603 121.027048,221.53803 C120.821924,221.31403 121.79984,220.49203 123.405052,220.37803 C125.010264,220.25803 126.14083,220.92403 125.985795,221.17403" id="Fill-139" fill="#241352"></path>
                <path d="M92.722888,235.40985 C98.8099677,229.295994 100.597748,219.110349 102.248928,210.519838 C107.885468,214.749659 115.638107,215.789212 122.137383,213.189095 C124.176794,215.658342 126.573282,217.813995 129.221402,219.564691 C129.973899,220.063479 130.867789,220.547451 131.725732,220.280772 C132.746636,219.96224 133.201968,218.757247 133.444014,217.685594 C134.222872,214.260748 134.25163,210.593916 133.09173,207.282655 C131.929433,203.973864 129.499394,201.06756 126.314462,199.798367 C122.911448,198.440281 119.081861,199.030431 115.547041,199.973684 C110.224441,201.39597 105.09356,203.581254 100.348513,206.445581 C95.6897402,209.255584 91.2178934,212.976739 89.2407908,218.149812 C87.2660846,223.325354 87.2756705,233.382598 92.0374924,236" id="Fill-141" fill="#241352"></path>
                <path d="M127.555502,279.224868 C121.362124,276.868954 169,293.80163 169,293.80163 L164.166698,325 L146.04748,319.309155 L127.555502,279.224868 Z" id="Fill-143" fill="#6F35A5"></path>
                <path d="M158.644915,376.631015 C158.644915,376.631015 178.773945,370.352393 178.083085,372.41653 C177.392225,374.48313 173.965164,374.559489 170.543056,377.892158 C170.543056,377.892158 193.044285,378.133549 191.962186,379.978463 C190.880086,381.820915 176.233363,382.283991 176.14422,382.599277 C176.057553,382.914563 192.165234,383.306207 191.803709,385.010721 C191.439707,386.715235 176.471079,386.301422 176.471079,386.301422 C176.471079,386.301422 190.345227,387.767008 190.06294,389.606997 C189.778177,391.446985 176.986128,390.121799 176.986128,390.121799 C176.986128,390.121799 187.693217,391.338605 187.413406,393.001246 C187.242548,394.018535 156.064715,394.24761 156,394.99395 C155.965667,395.385594 158.644915,376.631015 158.644915,376.631015" id="Fill-145" fill="#FFAFA7"></path>
                <path d="M189.232102,279 C189.232102,279 177.094495,261.911752 179.258412,261.919183 C181.422329,261.926614 182.551008,265.144129 186.753433,267.348584 C186.753433,267.348584 180.04775,245.975271 182.120684,246.423593 C184.198536,246.871915 189.150955,260.589079 189.475543,260.576694 C189.797671,260.559356 185.201807,245.192565 186.925563,245.001843 C188.646861,244.813597 192.868958,259.11036 192.868958,259.11036 C192.868958,259.11036 189.977178,245.519518 191.801754,245.214858 C193.628788,244.910197 196.31893,257.43101 196.31893,257.43101 C196.31893,257.43101 194.167308,246.916499 195.827131,246.6589 C196.837779,246.505331 206,272.584786 206,272.584786 C205.759018,272.584786 189.232102,279 189.232102,279" id="Fill-147" fill="#FFAFA7"></path>
                <path d="M78.4047136,325.000181 C78.5343324,324.986759 78.9759965,325.720505 79,327.17905 C78.9951993,327.885952 78.6855544,328.910512 77.7206144,329.552541 C77.2597475,329.872436 76.5732479,330.100613 75.8627448,329.955206 C75.1594428,329.818747 74.6289658,329.373578 74.2449101,328.984335 C73.4743983,328.145448 72.9703252,327.648827 72.1782103,327.561582 C71.4221006,327.449731 70.7380013,327.686856 70.2987376,328.06044 C69.3770038,328.845639 69.405808,329.751636 69.2185809,329.740451 C69.0937628,329.814273 68.6160935,328.771816 69.6530439,327.496708 C70.1595174,326.888236 71.177265,326.391615 72.3102294,326.494518 C72.8695106,326.537022 73.4671973,326.724932 73.9712704,327.082857 C74.4633418,327.429597 74.8137926,327.847922 75.1594428,328.192425 C76.4004228,329.77177 78.0302593,328.228218 78.1190722,327.094043 C78.3159007,325.892757 78.200684,325.013603 78.4047136,325.000181" id="Fill-149" fill="#FCF2FC"></path>
                <path d="M89.0087374,316.113905 C88.9308082,316.011998 89.3653226,315.256965 90.668866,314.450978 C91.3088303,314.073461 92.392755,313.777006 93.4625107,314.22632 C93.9867618,314.432449 94.5440739,314.877132 94.7778616,315.539523 C95.0140107,316.192651 94.8841287,316.871255 94.7306317,317.394683 C94.366962,318.480912 94.1780427,319.164148 94.5039285,319.865913 C94.789669,320.549149 95.356427,320.986883 95.918462,321.146691 C97.0944849,321.480203 97.8973921,320.970671 97.9847672,321.130479 C98.1146493,321.193012 97.4180092,322.147227 95.7389887,321.980471 C94.9313585,321.892461 93.9607854,321.320395 93.4743181,320.33144 C93.228723,319.845068 93.0917565,319.252159 93.1555168,318.647668 C93.2169156,318.052442 93.4129194,317.538278 93.5451629,317.068119 C94.3339011,315.196747 92.1117375,314.682583 91.0396202,315.222224 C89.8612359,315.706279 89.1244505,316.276029 89.0087374,316.113905" id="Fill-151" fill="#FCF2FC"></path>
                <path d="M89.0087384,293.114659 C88.9308091,293.012766 89.3653236,292.257829 90.6665055,291.451945 C91.3064698,291.074476 92.3903945,290.775744 93.4625117,291.227316 C93.9867629,291.433419 94.5440749,291.875729 94.7755011,292.540351 C95.0140118,293.193395 94.8841297,293.871912 94.7306328,294.395273 C94.3669631,295.481363 94.1756822,296.164512 94.5039296,296.863871 C94.7896701,297.549335 95.3540666,297.984697 95.9161016,298.1468 C97.094486,298.48027 97.8973932,297.970803 97.9847684,298.13059 C98.1146504,298.193116 97.4180104,299.147208 95.7366283,298.980473 C94.9289981,298.890159 93.9607865,298.318166 93.4743192,297.331654 C93.2287241,296.845345 93.0917575,296.252511 93.1531563,295.645782 C93.2145551,295.052948 93.4129204,294.53885 93.5451639,294.068751 C94.3339022,292.197619 92.1117385,291.683521 91.0396212,292.223092 C89.8588754,292.707086 89.1244514,293.276762 89.0087384,293.114659" id="Fill-153" fill="#FCF2FC"></path>
                <path d="M110.504936,322.988258 C110.40587,323.071762 109.581926,322.721948 108.62992,321.550636 C108.180496,320.97288 107.774565,319.966319 108.144253,318.90785 C108.313391,318.393286 108.724154,317.824556 109.393458,317.546962 C110.05068,317.264855 110.765892,317.330304 111.324047,317.434119 C112.486267,317.684631 113.213561,317.808758 113.911859,317.438633 C114.598076,317.109131 114.999175,316.533631 115.117572,315.982957 C115.361614,314.834214 114.757549,314.114275 114.917022,314.01723 C114.972596,313.888588 116.026084,314.470859 115.999506,316.082259 C115.980175,316.858619 115.472761,317.831327 114.489345,318.379745 C114.006093,318.655082 113.404445,318.835631 112.766553,318.826603 C112.143159,318.817576 111.592252,318.675394 111.092087,318.589633 C109.074512,317.996078 108.741068,320.155895 109.395874,321.13086 C110.004771,322.211897 110.661993,322.86413 110.504936,322.988258" id="Fill-155" fill="#FCF2FC"></path>
                <path d="M125.993464,346.956655 C126.065183,347.072613 125.553261,347.859111 124.131257,348.630484 C123.431383,348.990962 122.276469,349.227919 121.193272,348.658213 C120.661566,348.388484 120.115022,347.866673 119.922124,347.125551 C119.726753,346.397032 119.917178,345.673555 120.119968,345.118974 C120.582429,343.964435 120.83468,343.238438 120.550279,342.454461 C120.302974,341.68813 119.749011,341.171361 119.17279,340.952049 C117.970887,340.495779 117.092954,340.98734 117.013816,340.808362 C116.882745,340.727695 117.684013,339.747094 119.427514,340.062197 C120.263405,340.221009 121.230368,340.916757 121.660679,342.028441 C121.878308,342.57546 121.97723,343.228354 121.863469,343.881248 C121.752182,344.521538 121.504877,345.066036 121.32929,345.562639 C120.357381,347.533924 122.640007,348.267485 123.802341,347.76584 C125.071016,347.332258 125.88465,346.772635 125.993464,346.956655" id="Fill-157" fill="#FCF2FC"></path>
                <path d="M145.993064,308.956655 C146.067253,309.072613 145.552879,309.859111 144.130933,310.630484 C143.431088,310.990962 142.27622,311.227919 141.193068,310.658213 C140.661384,310.388484 140.114862,309.866673 139.921971,309.125551 C139.726608,308.399553 139.917026,307.673555 140.119807,307.118974 C140.582249,305.964435 140.83449,305.238438 140.550101,304.454461 C140.302806,303.68813 139.748865,303.171361 139.172667,302.952049 C137.970814,302.495779 137.092916,302.989861 137.013782,302.808362 C136.882716,302.727695 137.686424,301.747094 139.427381,302.062197 C140.263239,302.221009 141.230162,302.916757 141.660455,304.028441 C141.878075,304.57546 141.976993,305.228354 141.863237,305.881248 C141.751955,306.521538 141.50466,307.066036 141.32908,307.562639 C140.357211,309.533924 142.639744,310.267485 143.80203,309.76584 C145.070654,309.332258 145.884254,308.772635 145.993064,308.956655" id="Fill-159" fill="#FCF2FC"></path>
                <path d="M157.518128,303.022669 C157.606407,302.9218 158.58016,303.132921 159.872255,304.15803 C160.484863,304.669412 161.145624,305.626493 160.97174,306.773583 C160.899511,307.331881 160.575818,307.98401 159.907032,308.387485 C159.251622,308.790961 158.459779,308.849605 157.828444,308.844914 C156.509598,308.793306 155.691004,308.797998 155.011517,309.299997 C154.33738,309.759771 154.024388,310.416592 154.013688,311.000693 C154.000312,312.218156 154.813556,312.846828 154.661073,312.9735 C154.628971,313.116593 153.355602,312.708426 153.031909,311.054646 C152.887452,310.259424 153.227195,309.17567 154.179547,308.443784 C154.645022,308.07315 155.26298,307.782272 155.958518,307.676712 C156.638005,307.575843 157.269339,307.625104 157.833795,307.625104 C160.155821,307.871412 160.054165,305.605381 159.128565,304.725711 C158.229716,303.728751 157.370995,303.177491 157.518128,303.022669" id="Fill-161" fill="#FCF2FC"></path>
                <path d="M105.993464,366.956684 C106.065183,367.07264 105.553261,367.859127 104.131257,368.630489 C103.431384,368.990962 102.276469,369.227916 101.193273,368.658217 C100.661567,368.388493 100.115023,367.864168 99.9221249,367.125577 C99.7267539,366.397068 99.9147057,365.673601 100.117496,365.119027 C100.582429,363.964505 100.834681,363.238517 100.547807,362.454551 C100.302975,361.68823 99.7490113,361.171468 99.1727905,360.952159 C97.9684149,360.495896 97.0904819,360.98745 97.0138173,360.808474 C96.8827456,360.725288 97.684014,359.747221 99.4250417,360.06232 C100.263406,360.218609 101.230369,360.916868 101.660679,362.028537 C101.878308,362.575549 101.974757,363.228434 101.86347,363.881319 C101.752182,364.521599 101.504877,365.06609 101.329291,365.562686 C100.357382,367.533945 102.640008,368.267495 103.799868,367.765857 C105.071016,367.332281 105.88465,366.772666 105.993464,366.956684" id="Fill-163" fill="#FCF2FC"></path>
                <path d="M133.985447,328.992401 C133.882712,329.066992 133.149868,328.600198 132.396478,327.247939 C132.042612,326.58384 131.784633,325.469791 132.257215,324.39424 C132.478666,323.867292 132.9307,323.313876 133.592771,323.097322 C134.243426,322.878362 134.90778,323.032356 135.419173,323.205599 C136.478486,323.612239 137.145122,323.826387 137.846004,323.518399 C138.528622,323.246504 138.97609,322.68587 139.151881,322.120423 C139.517162,320.929377 139.035448,320.096847 139.197541,320.015038 C139.266031,319.8827 140.183798,320.621389 139.966913,322.327353 C139.855046,323.147851 139.263748,324.117532 138.275208,324.579514 C137.788929,324.815317 137.202197,324.935624 136.604051,324.849003 C136.021885,324.7696 135.519625,324.55064 135.063024,324.401458 C133.241188,323.535242 132.668155,325.784997 133.168132,326.894234 C133.608752,328.111749 134.14754,328.876906 133.985447,328.992401" id="Fill-165" fill="#FCF2FC"></path>
                <path d="M139.984173,348.992401 C139.883727,349.066992 139.148645,348.600198 138.3953,347.247939 C138.043739,346.58384 137.783492,345.469791 138.258328,344.39424 C138.477483,343.867292 138.931773,343.313876 139.593803,343.099728 C140.24442,342.878362 140.90645,343.032356 141.417812,343.208005 C142.477061,343.612239 143.14594,343.828793 143.844496,343.518399 C144.527073,343.246504 144.974514,342.688276 145.150295,342.120423 C145.515553,340.929377 145.036151,340.096847 145.195952,340.015038 C145.264438,339.8827 146.182149,340.621389 145.96756,342.327353 C145.8557,343.147851 145.262155,344.117532 144.273675,344.579514 C143.789708,344.815317 143.200729,344.935624 142.602618,344.851409 C142.020488,344.7696 141.520541,344.55064 141.061685,344.401458 C139.23996,343.535242 138.666961,345.784997 139.166908,346.894234 C139.607501,348.111749 140.148539,348.879312 139.984173,348.992401" id="Fill-167" fill="#FCF2FC"></path>
                <path d="M100.212249,341.999105 C100.087691,341.981712 99.8408808,341.08967 100.147663,339.50437 C100.311434,338.739053 100.83504,337.697924 101.882252,337.220843 C102.387405,336.977333 103.081702,336.885396 103.716026,337.205934 C104.345737,337.514049 104.740171,338.117854 105.012354,338.624753 C105.545187,339.708124 105.905022,340.361625 106.626998,340.637437 C107.314375,340.928158 108.006365,340.826282 108.504598,340.520652 C109.54489,339.879575 109.722501,338.893111 109.897805,338.945291 C110.03159,338.895596 110.241494,340.133024 108.982071,341.280999 C108.368507,341.82517 107.302842,342.1308 106.264857,341.76305 C105.74817,341.589114 105.231484,341.248697 104.839357,340.749253 C104.456455,340.259748 104.221179,339.728002 103.974369,339.275769 C103.169354,337.285448 101.29406,338.582511 100.952678,339.795092 C100.498272,341.049913 100.406006,342.033892 100.212249,341.999105" id="Fill-169" fill="#FCF2FC"></path>
                <path d="M136.213287,365.999105 C136.08872,365.981712 135.839585,365.08967 136.148697,363.50437 C136.31248,362.739053 136.836124,361.697924 137.883413,361.220843 C138.388603,360.977333 139.082952,360.885396 139.717323,361.205934 C140.34708,361.514049 140.741544,362.117854 141.013747,362.624753 C141.546618,363.708124 141.90648,364.361625 142.62851,364.637437 C143.315937,364.928158 144.007978,364.826282 144.506248,364.520652 C145.546617,363.879575 145.724241,362.893111 145.897251,362.945291 C146.031046,362.895596 146.243272,364.133024 144.98145,365.280999 C144.372454,365.82517 143.302096,366.133284 142.266341,365.76305 C141.749617,365.589114 141.232893,365.248697 140.840736,364.749253 C140.457807,364.262233 140.222513,363.728002 139.975685,363.275769 C139.17061,361.282963 137.295178,362.582511 136.953771,363.795092 C136.499331,365.049913 136.407059,366.033892 136.213287,365.999105" id="Fill-171" fill="#FCF2FC"></path>
                <path d="M134.213287,291.999103 C134.08872,291.984189 133.839585,291.089332 134.148697,289.503447 C134.310173,288.737847 134.836124,287.696334 135.883413,287.219077 C136.388603,286.977962 137.082952,286.885991 137.717323,287.204162 C138.34708,287.512391 138.741544,288.116419 139.013747,288.62599 C139.546618,289.709761 139.90648,290.363504 140.62851,290.636932 C141.315937,290.930246 142.007978,290.828332 142.506248,290.522589 C143.546617,289.881275 143.724241,288.891962 143.897251,288.944162 C144.031046,288.894447 144.243272,290.134818 142.98145,291.280732 C142.372454,291.827589 141.302096,292.133331 140.266341,291.76296 C139.749617,291.58896 139.232893,291.250903 138.840736,290.748789 C138.457807,290.261589 138.222513,289.727161 137.975685,289.277247 C137.17061,287.283705 135.295178,288.583733 134.953771,289.796761 C134.499331,291.052046 134.407059,292.033903 134.213287,291.999103" id="Fill-173" fill="#FCF2FC"></path>
                <path d="M121.76094,375.963701 C121.689839,376.073483 120.745208,375.972849 119.389207,375.117463 C118.741678,374.68977 117.990037,373.834384 118.000194,372.706829 C117.992576,372.157918 118.208419,371.492363 118.782307,371.030363 C119.346038,370.57065 120.084983,370.426561 120.679186,370.364809 C121.928535,370.275611 122.697952,370.184125 123.269301,369.626066 C123.843189,369.106888 124.048875,368.436759 123.980313,367.874125 C123.827953,366.691679 122.977278,366.172501 123.104245,366.032986 C123.114402,365.893471 124.36883,366.14963 124.897011,367.716313 C125.143325,368.471066 124.965572,369.552878 124.170763,370.367096 C123.779706,370.769631 123.238829,371.119561 122.598918,371.29567 C121.971704,371.464918 121.369883,371.485502 120.841703,371.547254 C118.61979,371.556403 119.023544,373.738324 120.013882,374.488502 C120.994063,375.357612 121.87521,375.799027 121.76094,375.963701" id="Fill-175" fill="#FCF2FC"></path>
                <path d="M79.1891774,303.004601 C79.3049077,302.945138 80.0460743,303.457438 80.7207575,304.809087 C81.0334756,305.472332 81.1984529,306.551822 80.5828661,307.52382 C80.292309,308.001814 79.753055,308.479808 79.0217378,308.619319 C78.3002699,308.763403 77.6034256,308.552994 77.0715586,308.338011 C75.9733516,307.850869 75.2789696,307.583283 74.4984055,307.807415 C73.7375401,307.99724 73.2032107,308.482095 72.9569759,309.001257 C72.4448077,310.089894 72.8781808,310.924669 72.6959671,310.988707 C72.6122473,311.105346 71.6987164,310.316313 72.1025414,308.722236 C72.3044539,307.95836 73.0357711,307.100715 74.1438274,306.759944 C74.6880062,306.583841 75.3306789,306.526664 75.9635022,306.666175 C76.5790891,306.798824 77.096182,307.054974 77.5738774,307.242512 C79.4427992,308.237381 80.2824597,306.167597 79.8564735,305.069811 C79.5043579,303.875969 79.002039,303.096083 79.1891774,303.004601" id="Fill-177" fill="#FCF2FC"></path>
                <path d="M121.188426,296.004923 C121.306607,295.943174 122.045235,296.457743 122.719849,297.809342 C123.032535,298.472563 123.199958,299.552013 122.581972,300.523975 C122.293907,300.999664 121.752246,301.479928 121.021004,301.617146 C120.29961,301.763512 119.602837,301.550824 119.071024,301.338136 C117.975392,300.851011 117.281081,300.581149 116.498135,300.805272 C115.737348,300.99509 115.203073,301.482215 114.956864,302.001357 C114.44721,303.089955 114.878077,303.924699 114.698344,303.988734 C114.61217,304.105369 113.698733,303.314078 114.102517,301.722347 C114.304408,300.958499 115.038113,300.100885 116.143593,299.760127 C116.687716,299.581743 117.332785,299.526856 117.963082,299.666361 C118.581067,299.799005 119.095645,300.055146 119.573292,300.242677 C121.444484,301.237509 122.281596,299.167802 121.855654,298.067769 C121.503574,296.873971 121.001307,296.096401 121.188426,296.004923" id="Fill-179" fill="#FCF2FC"></path>
                <path d="M96.4702872,338 C96.3777576,337.990247 96.3931792,337.105171 96.4985601,335.509133 C96.603941,333.915513 96.7992812,331.608512 97.069159,328.767081 C97.6063445,323.081799 98.4545321,315.224938 99.4466545,306.579731 C99.6754081,304.432334 99.7910701,302.342975 99.4774977,300.393874 C99.1870577,298.442355 98.3825646,296.689131 97.2130939,295.264788 C94.8535903,292.389501 91.5045345,290.895028 88.6566804,290.254195 C85.7702724,289.60127 83.3105284,289.632707 81.6347154,289.678654 C79.9511916,289.734273 79.015615,289.831003 79,289.734273 C78.9847718,289.661726 79.8920755,289.398138 81.5910209,289.187751 C83.2848258,288.994292 85.8036859,288.815342 88.8648719,289.383629 C91.8797932,289.947079 95.5347106,291.434296 98.1846542,294.551407 C99.5032003,296.091826 100.443917,298.084455 100.775482,300.205251 C101.132749,302.326048 101.009376,304.519391 100.780622,306.703061 C99.7833593,315.377287 98.7886666,323.197875 98.0098762,328.86381 C97.6191958,331.695569 97.2799208,333.983224 97.0151834,335.562334 C96.7530164,337.143863 96.5628167,338.009593 96.4702872,338" id="Fill-181" fill="#241352"></path>
                <path d="M97,337.095273 C97.0361058,337.433453 88.7817368,338.556024 78.5664117,339.608141 C68.3486717,340.662607 60.0363434,341.240332 60,340.9045 C59.9638943,340.568668 68.2158483,339.443748 78.4360033,338.39398 C88.6489134,337.339514 96.9636567,336.759441 97,337.095273" id="Fill-183" fill="#241352"></path>
                <path d="M187.726025,351.082789 C188.044953,348.891368 187.983145,346.804786 189.169853,344.87163 C191.535852,341.020661 194.893246,341.987239 198.14433,343.682586 C201.457223,345.408618 204.574803,346.444237 208.176955,344.830717 C213.801455,342.311988 216.44188,333.53863 211.0745,329.411496 C209.336467,328.07414 207.623158,330.280904 207.858027,331.96858 C208.1819,334.331327 209.314217,336.929325 207.358621,338.957093 C204.745392,341.667603 201.67973,339.391798 199.071446,338.174625 C196.255487,336.860284 193.25905,336.568776 190.351616,337.785948 C185.347665,339.877644 181.718318,346.896841 185.691316,351.637677 C186.25253,352.307633 187.592521,352.005897 187.726025,351.082789" id="Fill-185" fill="#7E2E84"></path>
                <path d="M224.978338,270.753807 C220.902685,274.573005 219.35487,280.515666 223.241259,285.104271 C226.896902,289.424595 233.977441,290.340798 238.545698,286.89618 C249.577442,278.587085 238.07902,263.252084 226.176144,266.42589 C223.972388,267.013069 224.52203,270.078045 226.69986,270.19953 C230.179202,270.394413 233.904847,270.523491 236.684172,272.905111 C239.67091,275.461367 239.735726,279.786753 237.288261,282.727712 C230.798847,290.517964 219.528578,279.047717 226.344666,272.085085 C227.202835,271.209378 225.877989,269.911002 224.978338,270.753807" id="Fill-187" fill="#FF7081"></path>
                <path d="M61.9777251,263.754155 C57.9045267,267.573173 56.3540667,273.515555 60.2405876,278.103944 C63.8989473,282.424065 70.9771342,283.340224 75.5455465,279.8983 C86.5776657,271.587065 75.0788528,256.250254 63.1755721,259.426441 C60.971741,260.013593 61.5214024,263.078425 63.6993061,263.199904 C67.1787665,263.394778 70.9045374,263.52385 73.6865501,265.905358 C76.6707967,268.461493 76.7356153,272.789207 74.2880664,275.727497 C67.798432,283.517382 56.5277804,272.047675 63.3441004,265.08537 C64.2022981,264.209704 62.8774067,262.91139 61.9777251,263.754155" id="Fill-189" fill="#7CABFF"></path>
                <path d="M7.06185636,357.038104 C9.65187038,366.963508 12.5028008,376.772782 15.4662364,386.586998 C16.1795674,388.946659 18.3411041,389.687914 20.3087488,388.30918 C28.0357037,382.893077 35.7650524,377.565925 43.0826798,371.566701 C44.4925857,370.410343 44.1837948,368.085274 42.7930387,367.099405 C34.2210976,361.026056 22.6450276,352.064283 11.7703199,352 C9.00317001,351.985216 7.06903755,356.002818 9.87448711,357.673112 C14.2645848,360.284801 19.5236059,361.216311 24.2129196,363.230054 C29.6227456,365.550182 34.9799095,368.275529 39.7577912,371.79649 C39.8631152,370.165729 39.970833,368.53991 40.076157,366.91162 C31.8967874,372.110288 24.1937698,377.939023 16.4141528,383.750462 L21.0077174,384.696797 C17.6876163,375.003653 14.2813409,365.382164 10.6021805,355.832329 C9.82421882,353.813645 6.50890513,354.920585 7.06185636,357.038104" id="Fill-191" fill="#FF7081"></path>
                <path d="M236.949841,315.70282 C243.858623,316.573048 251.141651,317.179772 258.114448,316.951697 C260.67508,316.867552 260.581519,313.66343 258.114448,313.435355 C251.309077,312.79763 244.11961,312.932704 237.299465,313.377782 C235.930512,313.466355 235.386378,315.503531 236.949841,315.70282" id="Fill-193" fill="#FBC580"></path>
                <path d="M4.94980385,315.70282 C11.8583175,316.573048 19.1410628,317.179772 26.1135898,316.951697 C28.6765843,316.867552 28.5805643,313.66343 26.1135898,313.435355 C19.3084822,312.79763 12.1192948,312.932704 5.29941502,313.377782 C3.93051495,313.466355 3.3864018,315.503531 4.94980385,315.70282" id="Fill-195" fill="#FBC580"></path>
                <path d="M50.8818952,304.401176 C50.7675509,304.29898 50.6532066,304.199161 50.5388624,304.099342 C49.0309472,302.768418 46.5582522,302.50461 45.090834,304.099342 C43.6091227,305.71071 43.6639127,307.920994 45.090834,309.534738 L45.395752,309.876976 C46.7440616,311.395655 49.5240569,311.352875 50.8818952,309.876976 C52.232587,308.408207 52.5065368,305.834296 50.8818952,304.401176" id="Fill-197" fill="#241352"></path>
                <path d="M148.482422,338 C148.224422,337.982902 147.986422,331.983193 147.480422,324.546283 C146.972422,317.097193 147.200422,310.980559 147.518422,311 C147.776422,311.014662 148.012422,317.014371 148.520422,324.453717 C149.026422,331.900372 148.800422,338.019441 148.482422,338" id="Fill-199" fill="#241352"></path>
                <polygon id="Fill-201" fill="#241352" points="189 281.117599 207.883946 276 209 279.305321 189.950807 285"></polygon>
                <path d="M200,280.001085 C200,281.105806 199.103635,282 198.001085,282 C196.896365,282 196,281.105806 196,280.001085 C196,278.896365 196.896365,278 198.001085,278 C199.103635,278 200,278.896365 200,280.001085" id="Fill-203" fill="#E6E2EB"></path>
                <path d="M125.805627,229.96008 C125.567627,230.103552 125.081627,229.851985 124.609627,229.339025 C124.141627,228.831961 123.939627,228.195183 124.195627,228.03992 C124.431627,227.896448 124.919627,228.148015 125.391627,228.660975 C125.857627,229.168039 126.059627,229.804817 125.805627,229.96008" id="Fill-205" fill="#241352"></path>
                <path d="M110.805653,231.96008 C110.567653,232.103552 110.081653,231.851985 109.609653,231.339025 C109.141653,230.831961 108.939653,230.195183 109.195653,230.03992 C109.431653,229.896448 109.919653,230.148015 110.389653,230.660975 C110.857653,231.168039 111.059653,231.804817 110.805653,231.96008" id="Fill-207" fill="#241352"></path>
                <polygon id="Fill-209" fill="#FBC580" points="94 154.741168 94 191.902566 69.4001958 191.902566 68.6168417 206 54.1608508 191.089253 0 191.089253 4.76975581 152"></polygon>
                <path d="M83.8002138,166.831 C60.0311593,166.439 36.1056973,166.301 12.3390866,166.713 C11.8869711,166.721 11.8869711,167.279 12.3390866,167.287 C36.1056973,167.699 60.0311593,167.561 83.8002138,167.169 C84.0665954,167.165 84.0665954,166.835 83.8002138,166.831" id="Fill-211" fill="#E6E2EB"></path>
                <path d="M83.8002138,173.831 C60.0311593,173.439 36.1056973,173.301 12.3390866,173.713 C11.8869711,173.721 11.8869711,174.279 12.3390866,174.287 C36.1056973,174.699 60.0311593,174.561 83.8002138,174.169 C84.0665954,174.165 84.0665954,173.835 83.8002138,173.831" id="Fill-213" fill="#E6E2EB"></path>
                <path d="M82.8022703,180.830578 C68.391584,180.456578 53.7462826,180.344578 39.3355963,180.712578 C38.8881346,180.724578 38.8881346,181.274578 39.3355963,181.286578 C53.7462826,181.656578 68.391584,181.542578 82.8022703,181.168578 C83.0659099,181.162578 83.0659099,180.836578 82.8022703,180.830578" id="Fill-215" fill="#E6E2EB"></path>
            </g>
        </g>
    </g>
</svg>